<?xml version="1.0"?>
<svg width="1038" height="1080" xmlns="http://www.w3.org/2000/svg" xmlns:svg="http://www.w3.org/2000/svg" version="1.1" xml:space="preserve">
 <desc>Created with Fabric.js 5.2.4</desc>

 <g class="layer" display="inline">
  <title>Layer 1</title>
  <g id="svg_29" transform="translate(0, -1.66667) translate(1.66667) translate(-1.66667) translate(-1.66667) translate(-1.66667) translate(-1.66667) translate(0, 1) translate(6.8036, 0.57811) matrix(1.53533, 0, 0, 1.53533, -313.382, -214.511)">
   <g id="1ca9ce56-221b-4afa-b3fb-36a2ac85e146" transform="matrix(1 0 0 1 540 540)"/>
   <g id="svg_11" transform="matrix(7.31 0 0 7.31 489.54 589.75)">
    <path d="m72.8,49.8c-0.2,-1.5 -0.3,-3.1 -0.6,-4.7c-0.3,-2.1 -2,-3.7 -4.1,-3.9c-1.5,-0.1 -3,-0.3 -4.4,-0.4c-2.5,-0.2 -4.9,-0.3 -7.2,-0.4c-2.3,-0.1 -4.5,-0.2 -6.6,-0.2c-2.2,-0.1 -4.3,-0.1 -6.4,-0.1c-2.1,0 -4.2,0 -6.4,0.1c-2.1,0 -4.3,0.1 -6.6,0.2c-2.3,0.1 -4.7,0.3 -7.2,0.4c-1.4,0.1 -2.9,0.2 -4.4,0.4c-1.9,0.1 -3.6,1.8 -3.9,3.9c-0.2,1.6 -0.4,3.2 -0.6,4.7c-0.3,2.6 -0.4,5 -0.6,7.3c-0.1,2.3 -0.2,4.6 -0.2,6.8c0,2.2 0.1,4.5 0.2,6.8c0.1,2.3 0.3,4.7 0.6,7.3c0.2,1.5 0.3,3.1 0.6,4.7c0.3,2.1 2,3.7 4.1,3.9c1.5,0.1 3,0.3 4.4,0.4c2.5,0.2 4.9,0.3 7.2,0.4c2.3,0.1 4.5,0.2 6.6,0.2c2.2,0.1 4.3,0.1 6.4,0.1c2.1,0 4.2,0 6.4,-0.1c2.1,-0.1 4.3,-0.1 6.6,-0.2c2.3,-0.1 4.7,-0.3 7.2,-0.4c1.4,-0.1 2.9,-0.2 4.4,-0.4c2.1,-0.2 3.8,-1.8 4.1,-3.9c0.2,-1.6 0.4,-3.2 0.6,-4.7c0.3,-2.6 0.4,-5 0.6,-7.3c0.1,-2.3 0.2,-4.6 0.2,-6.8c0,-2.2 -0.1,-4.5 -0.2,-6.8c-0.4,-2.4 -0.5,-4.8 -0.8,-7.3zm-48.8,-2.4c-0.4,0 -0.8,0.1 -1.2,0.1c-0.1,0 -0.3,0 -0.4,0c0,0 0,0 -0.1,0c-0.4,0 -0.7,-0.3 -0.7,-0.7c0,-0.4 0.3,-0.7 0.7,-0.8c0.1,0 0.3,0 0.4,0c0.4,0 0.8,-0.1 1.3,-0.1c0.4,0 0.7,0.3 0.8,0.7c-0.2,0.4 -0.5,0.8 -0.8,0.8zm13.4,-0.7c-0.9,0 -1.8,0 -2.6,0.1c-0.1,0 -0.2,0 -0.4,0c-1.1,0 -2.3,0.1 -3.4,0.1c-1.4,0.1 -2.8,0.1 -4.2,0.2c0,0 0,0 0,0c-0.4,0 -0.7,-0.3 -0.7,-0.7c0,-0.4 0.3,-0.7 0.7,-0.8c1.5,-0.1 2.9,-0.2 4.2,-0.2c1.2,-0.1 2.3,-0.1 3.5,-0.1c0.1,0 0.2,0 0.4,0c0.9,0 1.8,-0.1 2.7,-0.1c0.4,0 0.7,0.3 0.7,0.7c-0.2,0.5 -0.5,0.8 -0.9,0.8z" fill="rgb(255,153,153)" fill-rule="nonzero" id="svg_12" stroke-dashoffset="0" stroke-miterlimit="4" transform=" translate(-43.7, -63.9)"/>
   </g>
   <g id="SvgjsG1067" transform="matrix(7.31 0 0 7.31 778.15 491.03)">
    <rect fill="rgb(255,153,153)" fill-rule="nonzero" height="1.2" id="svg_13" stroke-dashoffset="0" stroke-miterlimit="4" width="12.7" x="-6.35" y="-0.6"/>
   </g>
   <g id="svg_1" transform="matrix(7.31 0 0 7.31 778.15 508.62)">
    <rect fill="rgb(255,153,153)" fill-rule="nonzero" height="1.2" id="svg_14" stroke-dashoffset="0" stroke-miterlimit="4" width="12.7" x="-6.35" y="-0.6"/>
   </g>
   <g id="svg_2" transform="matrix(7.31 0 0 7.31 778.15 526.9)">
    <rect fill="rgb(255,153,153)" fill-rule="nonzero" height="1.2" id="svg_15" stroke-dashoffset="0" stroke-miterlimit="4" width="12.7" x="-6.35" y="-0.6"/>
   </g>
   <g id="svg_3" transform="matrix(7.31 0 0 7.31 778.15 473.48)">
    <rect fill="rgb(255,153,153)" fill-rule="nonzero" height="1.2" id="svg_16" stroke-dashoffset="0" stroke-miterlimit="4" width="12.7" x="-6.35" y="-0.6"/>
   </g>
   <g id="svg_4" transform="matrix(7.31 0 0 7.31 778.15 438.37)">
    <rect fill="rgb(255,153,153)" fill-rule="nonzero" height="1.2" id="svg_17" stroke-dashoffset="0" stroke-miterlimit="4" width="12.7" x="-6.35" y="-0.6"/>
   </g>
   <g id="svg_18" transform="matrix(7.31 0 0 7.31 778.19 650.59)">
    <path d="m80.2,69.3c-1.6,1.6 -1.6,4.3 0,5.9c1.6,1.6 4.3,1.6 5.9,0c1.6,-1.6 1.6,-4.3 0,-5.9c-1.6,-1.7 -4.3,-1.7 -5.9,0zm5.6,1.9c-0.4,0.5 -1.2,0.4 -1.6,0c-0.4,-0.5 -0.4,-1.2 0,-1.6c0.4,-0.4 1.2,-0.4 1.6,0c0.5,0.4 0.5,1.1 0,1.6z" fill="rgb(255,153,153)" fill-rule="nonzero" id="svg_19" stroke-dashoffset="0" stroke-miterlimit="4" transform=" translate(-83.15, -72.21)"/>
   </g>
   <g id="svg_5" transform="matrix(7.31 0 0 7.31 778.15 455.92)">
    <rect fill="rgb(255,153,153)" fill-rule="nonzero" height="1.2" id="svg_20" stroke-dashoffset="0" stroke-miterlimit="4" width="12.7" x="-6.35" y="-0.6"/>
   </g>
   <g id="svg_6" transform="matrix(7.31 0 0 7.31 778.15 544.45)">
    <rect fill="rgb(255,153,153)" fill-rule="nonzero" height="1.2" id="svg_21" stroke-dashoffset="0" stroke-miterlimit="4" width="12.7" x="-6.35" y="-0.6"/>
   </g>
   <g id="svg_22" transform="matrix(7.31 0 0 7.31 777.82 730.96)">
    <path d="m83.1,79c-2.3,0 -4.2,1.9 -4.2,4.2c0,2.3 1.9,4.2 4.2,4.2c2.3,0 4.2,-1.9 4.2,-4.2c0,-2.3 -1.8,-4.2 -4.2,-4.2zm-2.6,5.4c-0.6,0 -1.1,-0.5 -1.1,-1.2c0,-0.6 0.5,-1.2 1.1,-1.1c0.6,0 1.1,0.5 1.1,1.1c0.1,0.6 -0.4,1.2 -1.1,1.2z" fill="rgb(255,153,153)" fill-rule="nonzero" id="svg_23" stroke-dashoffset="0" stroke-miterlimit="4" transform=" translate(-83.1, -83.2)"/>
   </g>
   <g id="svg_24" transform="matrix(7.31 0 0 7.31 540 492.05)">
    <path d="m89.7,30.3l-52.3,0c-0.1,-0.6 -0.3,-1.2 -0.5,-1.7l17.6,-6.2c0.7,-0.3 1.2,-0.9 1.3,-1.6l2.1,-0.7l15,-5.4l0.1,0.2c0.2,0.4 0.5,0.6 0.9,0.6c0.1,0 0.3,0 0.4,-0.1c0.5,-0.2 0.8,-0.8 0.5,-1.3l-1,-2.2c-0.2,-0.5 -0.8,-0.8 -1.3,-0.5c-0.5,0.2 -0.8,0.8 -0.5,1.3l0.1,0.2l-14.9,5.3l-2.1,0.7c-0.5,-0.5 -1.3,-0.6 -2,-0.4l-18.8,6.7c-1.4,-1.1 -3.2,-1.8 -5.1,-1.8c-0.9,0 -1.7,0.1 -2.5,0.4l-7.3,-8.3c-0.5,-0.6 -1.2,-0.8 -1.9,-0.6l-9.3,-10.6l0.1,-0.1c0.4,-0.4 0.4,-1 0,-1.4c-0.4,-0.4 -1,-0.4 -1.4,0l-1.8,1.6c-0.4,0.4 -0.4,1 0,1.4c0.2,0.2 0.5,0.3 0.8,0.3c0.3,0 0.5,-0.1 0.7,-0.3l0.1,-0.1l9.4,10.6c-0.2,0.7 -0.1,1.4 0.4,2l6.9,7.8c-1.1,1.2 -1.9,2.6 -2.1,4.3l-8.3,0c-3.6,0 -6.6,3 -6.6,6.6l0,52.6c0,3.6 3,6.6 6.6,6.6l6.3,0l0,2.4l11.3,0l0,-2.6l41.6,0l0,2.4l11.3,0l0,-2.4l6.3,0c3.6,0 6.6,-3 6.6,-6.6l0,-52.5c-0.1,-3.7 -3.1,-6.6 -6.7,-6.6zm2.5,59.2l0,0c0,1.4 -1.1,2.5 -2.5,2.5l-76.8,0c-1.4,0 -2.5,-1.1 -2.5,-2.5l0,-52.6c0,-1.4 1.1,-2.5 2.5,-2.5l8.6,0l15.6,0l52.5,0c1.4,0 2.5,1.1 2.5,2.5l0,52.6l0.1,0z" fill="rgb(255,153,153)" fill-rule="nonzero" id="svg_25" stroke-dashoffset="0" stroke-miterlimit="4" transform=" translate(-50.6, -50.55)"/>
   </g>
   <g id="svg_7" transform="matrix(7.31 0 0 7.31 778.15 562)">
    <rect fill="rgb(255,153,153)" fill-rule="nonzero" height="1.2" id="svg_26" stroke-dashoffset="0" stroke-miterlimit="4" width="12.7" x="-6.35" y="-0.6"/>
   </g>
   <g id="svg_8" transform="matrix(7.31 0 0 7.31 778.15 597.1)">
    <rect fill="rgb(255,153,153)" fill-rule="nonzero" height="1.2" id="svg_27" stroke-dashoffset="0" stroke-miterlimit="4" width="12.7" x="-6.35" y="-0.6"/>
   </g>
   <g id="svg_9" transform="matrix(7.31 0 0 7.31 778.15 579.55)">
    <rect fill="rgb(255,153,153)" fill-rule="nonzero" height="1.2" id="svg_28" stroke-dashoffset="0" stroke-miterlimit="4" width="12.7" x="-6.35" y="-0.6"/>
   </g>
  </g>
 </g>
</svg>