<?xml version="1.0" encoding="UTF-8" standalone="no" ?>
<!DOCTYPE svg PUBLIC "-//W3C//DTD SVG 1.1//EN" "http://www.w3.org/Graphics/SVG/1.1/DTD/svg11.dtd">
<svg xmlns="http://www.w3.org/2000/svg" xmlns:xlink="http://www.w3.org/1999/xlink" version="1.1" width="1080" height="1080" viewBox="0 0 1080 1080" xml:space="preserve">
<desc>Created with Fabric.js 5.2.4</desc>
<defs>
</defs>
<g transform="matrix(1 0 0 1 540 540)" id="a5650230-2213-4468-b191-453f46625293"  >
<rect style="stroke: none; stroke-width: 1; stroke-dasharray: none; stroke-linecap: butt; stroke-dashoffset: 0; stroke-linejoin: miter; stroke-miterlimit: 4; fill: rgb(255,255,255); fill-rule: nonzero; opacity: 1; visibility: hidden;" vector-effect="non-scaling-stroke"  x="-540" y="-540" rx="0" ry="0" width="1080" height="1080" />
</g>
<g transform="matrix(1 0 0 1 540 540)" id="1ca9ce56-221b-4afa-b3fb-36a2ac85e146"  >
</g>
<g transform="matrix(7.31 0 0 7.31 489.54 589.75)"  >
<path style="stroke: none; stroke-width: 1; stroke-dasharray: none; stroke-linecap: butt; stroke-dashoffset: 0; stroke-linejoin: miter; stroke-miterlimit: 4; fill: rgb(255,153,153); fill-rule: nonzero; opacity: 1;" vector-effect="non-scaling-stroke"  transform=" translate(-43.7, -63.9)" d="M 72.8 49.8 C 72.6 48.3 72.5 46.699999999999996 72.2 45.099999999999994 C 71.9 42.99999999999999 70.2 41.39999999999999 68.10000000000001 41.199999999999996 C 66.60000000000001 41.099999999999994 65.10000000000001 40.9 63.70000000000001 40.8 C 61.20000000000001 40.599999999999994 58.80000000000001 40.5 56.50000000000001 40.4 C 54.20000000000001 40.3 52.00000000000001 40.199999999999996 49.900000000000006 40.199999999999996 C 47.7 40.099999999999994 45.60000000000001 40.099999999999994 43.50000000000001 40.099999999999994 C 41.400000000000006 40.099999999999994 39.300000000000004 40.099999999999994 37.10000000000001 40.199999999999996 C 35.00000000000001 40.199999999999996 32.80000000000001 40.3 30.500000000000007 40.4 C 28.200000000000006 40.5 25.800000000000008 40.699999999999996 23.300000000000008 40.8 C 21.90000000000001 40.9 20.40000000000001 41 18.900000000000006 41.199999999999996 C 17 41.3 15.3 43 15 45.1 C 14.8 46.7 14.6 48.300000000000004 14.4 49.800000000000004 C 14.1 52.400000000000006 14 54.800000000000004 13.8 57.1 C 13.700000000000001 59.4 13.600000000000001 61.7 13.600000000000001 63.9 C 13.600000000000001 66.1 13.700000000000001 68.4 13.8 70.7 C 13.9 73 14.100000000000001 75.4 14.4 78 C 14.6 79.5 14.700000000000001 81.1 15 82.7 C 15.3 84.8 17 86.4 19.1 86.60000000000001 C 20.6 86.7 22.1 86.9 23.5 87.00000000000001 C 26 87.20000000000002 28.4 87.30000000000001 30.7 87.40000000000002 C 33 87.50000000000001 35.2 87.60000000000002 37.3 87.60000000000002 C 39.5 87.70000000000002 41.599999999999994 87.70000000000002 43.699999999999996 87.70000000000002 C 45.8 87.70000000000002 47.9 87.70000000000002 50.099999999999994 87.60000000000002 C 52.199999999999996 87.50000000000003 54.39999999999999 87.50000000000003 56.699999999999996 87.40000000000002 C 58.99999999999999 87.30000000000003 61.4 87.10000000000002 63.9 87.00000000000001 C 65.3 86.90000000000002 66.8 86.80000000000001 68.3 86.60000000000001 C 70.39999999999999 86.4 72.1 84.80000000000001 72.39999999999999 82.7 C 72.6 81.10000000000001 72.8 79.5 72.99999999999999 78 C 73.29999999999998 75.4 73.39999999999999 73 73.59999999999998 70.7 C 73.69999999999997 68.4 73.79999999999998 66.10000000000001 73.79999999999998 63.900000000000006 C 73.79999999999998 61.7 73.69999999999999 59.400000000000006 73.59999999999998 57.10000000000001 C 73.2 54.7 73.1 52.3 72.8 49.8 z M 24 47.4 C 23.6 47.4 23.2 47.5 22.8 47.5 C 22.7 47.5 22.5 47.5 22.400000000000002 47.5 C 22.400000000000002 47.5 22.400000000000002 47.5 22.3 47.5 C 21.900000000000002 47.5 21.6 47.2 21.6 46.8 C 21.6 46.4 21.900000000000002 46.099999999999994 22.3 46 C 22.400000000000002 46 22.6 46 22.7 46 C 23.099999999999998 46 23.5 45.9 24 45.9 C 24.4 45.9 24.7 46.199999999999996 24.8 46.6 C 24.6 47 24.3 47.4 24 47.4 z M 37.4 46.7 C 36.5 46.7 35.6 46.7 34.8 46.800000000000004 C 34.699999999999996 46.800000000000004 34.599999999999994 46.800000000000004 34.4 46.800000000000004 C 33.3 46.800000000000004 32.1 46.900000000000006 31 46.900000000000006 C 29.6 47.00000000000001 28.2 47.00000000000001 26.8 47.10000000000001 C 26.8 47.10000000000001 26.8 47.10000000000001 26.8 47.10000000000001 C 26.400000000000002 47.10000000000001 26.1 46.80000000000001 26.1 46.400000000000006 C 26.1 46.00000000000001 26.400000000000002 45.7 26.8 45.60000000000001 C 28.3 45.50000000000001 29.7 45.400000000000006 31 45.400000000000006 C 32.2 45.300000000000004 33.3 45.300000000000004 34.5 45.300000000000004 C 34.6 45.300000000000004 34.7 45.300000000000004 34.9 45.300000000000004 C 35.8 45.300000000000004 36.699999999999996 45.2 37.6 45.2 C 38 45.2 38.300000000000004 45.5 38.300000000000004 45.900000000000006 C 38.1 46.4 37.8 46.7 37.4 46.7 z" stroke-linecap="round" />
</g>
<g transform="matrix(7.31 0 0 7.31 778.15 491.03)" id="SvgjsG1067"  >
<rect style="stroke: none; stroke-width: 1; stroke-dasharray: none; stroke-linecap: butt; stroke-dashoffset: 0; stroke-linejoin: miter; stroke-miterlimit: 4; fill: rgb(255,153,153); fill-rule: nonzero; opacity: 1;" vector-effect="non-scaling-stroke"  x="-6.35" y="-0.6" rx="0" ry="0" width="12.7" height="1.2" />
</g>
<g transform="matrix(7.31 0 0 7.31 778.15 508.62)" id="SvgjsG1067"  >
<rect style="stroke: none; stroke-width: 1; stroke-dasharray: none; stroke-linecap: butt; stroke-dashoffset: 0; stroke-linejoin: miter; stroke-miterlimit: 4; fill: rgb(255,153,153); fill-rule: nonzero; opacity: 1;" vector-effect="non-scaling-stroke"  x="-6.35" y="-0.6" rx="0" ry="0" width="12.7" height="1.2" />
</g>
<g transform="matrix(7.31 0 0 7.31 778.15 526.9)" id="SvgjsG1067"  >
<rect style="stroke: none; stroke-width: 1; stroke-dasharray: none; stroke-linecap: butt; stroke-dashoffset: 0; stroke-linejoin: miter; stroke-miterlimit: 4; fill: rgb(255,153,153); fill-rule: nonzero; opacity: 1;" vector-effect="non-scaling-stroke"  x="-6.35" y="-0.6" rx="0" ry="0" width="12.7" height="1.2" />
</g>
<g transform="matrix(7.31 0 0 7.31 778.15 473.48)" id="SvgjsG1067"  >
<rect style="stroke: none; stroke-width: 1; stroke-dasharray: none; stroke-linecap: butt; stroke-dashoffset: 0; stroke-linejoin: miter; stroke-miterlimit: 4; fill: rgb(255,153,153); fill-rule: nonzero; opacity: 1;" vector-effect="non-scaling-stroke"  x="-6.35" y="-0.6" rx="0" ry="0" width="12.7" height="1.2" />
</g>
<g transform="matrix(7.31 0 0 7.31 778.15 438.37)" id="SvgjsG1067"  >
<rect style="stroke: none; stroke-width: 1; stroke-dasharray: none; stroke-linecap: butt; stroke-dashoffset: 0; stroke-linejoin: miter; stroke-miterlimit: 4; fill: rgb(255,153,153); fill-rule: nonzero; opacity: 1;" vector-effect="non-scaling-stroke"  x="-6.35" y="-0.6" rx="0" ry="0" width="12.7" height="1.2" />
</g>
<g transform="matrix(7.31 0 0 7.31 778.19 650.59)"  >
<path style="stroke: none; stroke-width: 1; stroke-dasharray: none; stroke-linecap: butt; stroke-dashoffset: 0; stroke-linejoin: miter; stroke-miterlimit: 4; fill: rgb(255,153,153); fill-rule: nonzero; opacity: 1;" vector-effect="non-scaling-stroke"  transform=" translate(-83.15, -72.21)" d="M 80.2 69.3 C 78.60000000000001 70.89999999999999 78.60000000000001 73.6 80.2 75.2 C 81.8 76.8 84.5 76.8 86.10000000000001 75.2 C 87.7 73.60000000000001 87.7 70.9 86.10000000000001 69.3 C 84.5 67.6 81.8 67.6 80.2 69.3 z M 85.8 71.2 C 85.39999999999999 71.7 84.6 71.60000000000001 84.2 71.2 C 83.8 70.7 83.8 70 84.2 69.60000000000001 C 84.60000000000001 69.2 85.4 69.2 85.8 69.60000000000001 C 86.3 70 86.3 70.7 85.8 71.2 z" stroke-linecap="round" />
</g>
<g transform="matrix(7.31 0 0 7.31 778.15 455.92)" id="SvgjsG1067"  >
<rect style="stroke: none; stroke-width: 1; stroke-dasharray: none; stroke-linecap: butt; stroke-dashoffset: 0; stroke-linejoin: miter; stroke-miterlimit: 4; fill: rgb(255,153,153); fill-rule: nonzero; opacity: 1;" vector-effect="non-scaling-stroke"  x="-6.35" y="-0.6" rx="0" ry="0" width="12.7" height="1.2" />
</g>
<g transform="matrix(7.31 0 0 7.31 778.15 544.45)" id="SvgjsG1067"  >
<rect style="stroke: none; stroke-width: 1; stroke-dasharray: none; stroke-linecap: butt; stroke-dashoffset: 0; stroke-linejoin: miter; stroke-miterlimit: 4; fill: rgb(255,153,153); fill-rule: nonzero; opacity: 1;" vector-effect="non-scaling-stroke"  x="-6.35" y="-0.6" rx="0" ry="0" width="12.7" height="1.2" />
</g>
<g transform="matrix(7.31 0 0 7.31 777.82 730.96)"  >
<path style="stroke: none; stroke-width: 1; stroke-dasharray: none; stroke-linecap: butt; stroke-dashoffset: 0; stroke-linejoin: miter; stroke-miterlimit: 4; fill: rgb(255,153,153); fill-rule: nonzero; opacity: 1;" vector-effect="non-scaling-stroke"  transform=" translate(-83.1, -83.2)" d="M 83.1 79 C 80.8 79 78.89999999999999 80.9 78.89999999999999 83.2 C 78.89999999999999 85.5 80.8 87.4 83.1 87.4 C 85.39999999999999 87.4 87.3 85.5 87.3 83.2 C 87.3 80.9 85.5 79 83.1 79 z M 80.5 84.4 C 79.9 84.4 79.4 83.9 79.4 83.2 C 79.4 82.60000000000001 79.9 82 80.5 82.10000000000001 C 81.1 82.10000000000001 81.6 82.60000000000001 81.6 83.2 C 81.7 83.8 81.2 84.4 80.5 84.4 z" stroke-linecap="round" />
</g>
<g transform="matrix(7.31 0 0 7.31 540 492.05)"  >
<path style="stroke: none; stroke-width: 1; stroke-dasharray: none; stroke-linecap: butt; stroke-dashoffset: 0; stroke-linejoin: miter; stroke-miterlimit: 4; fill: rgb(255,153,153); fill-rule: nonzero; opacity: 1;" vector-effect="non-scaling-stroke"  transform=" translate(-50.6, -50.55)" d="M 89.7 30.3 L 37.4 30.3 C 37.3 29.7 37.1 29.1 36.9 28.6 L 54.5 22.400000000000002 C 55.2 22.1 55.7 21.500000000000004 55.8 20.8 L 57.9 20.1 L 72.9 14.700000000000001 L 73 14.9 C 73.2 15.3 73.5 15.5 73.9 15.5 C 74 15.5 74.2 15.5 74.30000000000001 15.4 C 74.80000000000001 15.200000000000001 75.10000000000001 14.6 74.80000000000001 14.1 L 73.80000000000001 11.899999999999999 C 73.60000000000001 11.399999999999999 73.00000000000001 11.099999999999998 72.50000000000001 11.399999999999999 C 72.00000000000001 11.599999999999998 71.70000000000002 12.2 72.00000000000001 12.7 L 72.10000000000001 12.899999999999999 L 57.20000000000001 18.2 L 55.10000000000001 18.9 C 54.60000000000001 18.4 53.80000000000001 18.299999999999997 53.10000000000001 18.5 L 34.30000000000001 25.2 C 32.90000000000001 24.099999999999998 31.100000000000012 23.4 29.20000000000001 23.4 C 28.30000000000001 23.4 27.50000000000001 23.5 26.70000000000001 23.799999999999997 L 19.40000000000001 15.499999999999996 C 18.90000000000001 14.899999999999997 18.20000000000001 14.699999999999996 17.50000000000001 14.899999999999997 L 8.2 4.3 L 8.299999999999999 4.2 C 8.7 3.8000000000000003 8.7 3.2 8.299999999999999 2.8000000000000003 C 7.899999999999999 2.4000000000000004 7.299999999999999 2.4000000000000004 6.899999999999999 2.8000000000000003 L 5.1 4.4 C 4.699999999999999 4.800000000000001 4.699999999999999 5.4 5.1 5.800000000000001 C 5.3 6 5.6 6.1 5.9 6.1 C 6.2 6.1 6.4 6 6.6000000000000005 5.8 L 6.7 5.7 L 16.1 16.3 C 15.900000000000002 17 16 17.7 16.5 18.3 L 23.4 26.1 C 22.299999999999997 27.3 21.5 28.700000000000003 21.299999999999997 30.400000000000002 L 12.999999999999996 30.400000000000002 C 9.399999999999997 30.400000000000002 6.399999999999997 33.400000000000006 6.399999999999997 37 L 6.399999999999997 89.6 C 6.399999999999997 93.19999999999999 9.399999999999997 96.19999999999999 12.999999999999996 96.19999999999999 L 19.299999999999997 96.19999999999999 L 19.299999999999997 98.6 L 30.599999999999998 98.6 L 30.599999999999998 96 L 72.2 96 L 72.2 98.4 L 83.5 98.4 L 83.5 96 L 89.8 96 C 93.39999999999999 96 96.39999999999999 93 96.39999999999999 89.4 L 96.39999999999999 36.9 C 96.3 33.2 93.3 30.3 89.7 30.3 z M 92.2 89.5 L 92.2 89.5 C 92.2 90.9 91.10000000000001 92 89.7 92 L 12.9 92 C 11.5 92 10.4 90.9 10.4 89.5 L 10.4 36.9 C 10.4 35.5 11.5 34.4 12.9 34.4 L 21.5 34.4 L 37.1 34.4 L 89.6 34.4 C 91 34.4 92.1 35.5 92.1 36.9 L 92.1 89.5 z" stroke-linecap="round" />
</g>
<g transform="matrix(7.31 0 0 7.31 778.15 562)" id="SvgjsG1067"  >
<rect style="stroke: none; stroke-width: 1; stroke-dasharray: none; stroke-linecap: butt; stroke-dashoffset: 0; stroke-linejoin: miter; stroke-miterlimit: 4; fill: rgb(255,153,153); fill-rule: nonzero; opacity: 1;" vector-effect="non-scaling-stroke"  x="-6.35" y="-0.6" rx="0" ry="0" width="12.7" height="1.2" />
</g>
<g transform="matrix(7.31 0 0 7.31 778.15 597.1)" id="SvgjsG1067"  >
<rect style="stroke: none; stroke-width: 1; stroke-dasharray: none; stroke-linecap: butt; stroke-dashoffset: 0; stroke-linejoin: miter; stroke-miterlimit: 4; fill: rgb(255,153,153); fill-rule: nonzero; opacity: 1;" vector-effect="non-scaling-stroke"  x="-6.35" y="-0.6" rx="0" ry="0" width="12.7" height="1.2" />
</g>
<g transform="matrix(7.31 0 0 7.31 778.15 579.55)" id="SvgjsG1067"  >
<rect style="stroke: none; stroke-width: 1; stroke-dasharray: none; stroke-linecap: butt; stroke-dashoffset: 0; stroke-linejoin: miter; stroke-miterlimit: 4; fill: rgb(255,153,153); fill-rule: nonzero; opacity: 1;" vector-effect="non-scaling-stroke"  x="-6.35" y="-0.6" rx="0" ry="0" width="12.7" height="1.2" />
</g>
</svg>