<?xml version="1.0" encoding="UTF-8" standalone="no" ?>
<!DOCTYPE svg PUBLIC "-//W3C//DTD SVG 1.1//EN" "http://www.w3.org/Graphics/SVG/1.1/DTD/svg11.dtd">
<svg xmlns="http://www.w3.org/2000/svg" xmlns:xlink="http://www.w3.org/1999/xlink" version="1.1" width="1080" height="1080" viewBox="0 0 1080 1080" xml:space="preserve">
<desc>Created with Fabric.js 5.2.4</desc>
<defs>
</defs>
<rect x="0" y="0" width="100%" height="100%" fill="transparent"></rect>
<g transform="matrix(1 0 0 1 540 540)" id="a5650230-2213-4468-b191-453f46625293"  >
<rect style="stroke: none; stroke-width: 1; stroke-dasharray: none; stroke-linecap: butt; stroke-dashoffset: 0; stroke-linejoin: miter; stroke-miterlimit: 4; fill: rgb(255,255,255); fill-rule: nonzero; opacity: 1; visibility: hidden;" vector-effect="non-scaling-stroke"  x="-540" y="-540" rx="0" ry="0" width="1080" height="1080" />
</g>
<g transform="matrix(1 0 0 1 540 540)" id="1ca9ce56-221b-4afa-b3fb-36a2ac85e146"  >
</g>
<g transform="matrix(7.77 0 0 7.77 540 501.18)" id="SvgjsG1068"  >
<path style="stroke: none; stroke-width: 1; stroke-dasharray: none; stroke-linecap: butt; stroke-dashoffset: 0; stroke-linejoin: miter; stroke-miterlimit: 4; fill: rgb(68,79,90); fill-rule: nonzero; opacity: 1;" vector-effect="non-scaling-stroke"  transform=" translate(-46.2, -12.99)" d="M 2.6 6 L 6.1 6 C 7.5 6 8.5 8.52 8.42 10.54 C 8.38 11.579999999999998 7.88 11.94 7.24 12.7 C 8.02 13.66 8.5 14.239999999999998 8.540000000000001 15.44 C 8.600000000000001 17.4 7.520000000000001 20 6.300000000000001 20 L 2.6600000000000006 20 C 1.4000000000000006 20 1.4000000000000006 20 1.4000000000000006 18.9 L 1.4000000000000006 7.099999999999998 C 1.4000000000000006 6.019999999999998 1.4000000000000006 6.019999999999998 2.6000000000000005 5.999999999999998 z M 3.68 8.26 L 3.68 11.86 L 4.88 11.86 C 5.88 11.86 6.88 9.959999999999999 5.68 8.26 L 3.6799999999999997 8.26 z M 3.68 14.1 L 3.68 17.72 L 5.68 17.72 C 6.88 15.999999999999998 5.88 14.099999999999998 4.88 14.099999999999998 L 3.6799999999999997 14.099999999999998 z M 11.34 19.56 L 11.34 6.419999999999998 C 11.34 5.8199999999999985 13.62 5.8199999999999985 13.62 6.419999999999998 L 13.62 19.56 C 13.62 20.16 11.34 20.16 11.34 19.56 z M 21.56 13.6 L 21.56 6.42 C 21.56 5.82 23.759999999999998 5.82 23.759999999999998 6.42 L 23.759999999999998 19.16 C 23.759999999999998 20.16 21.839999999999996 20.18 21.639999999999997 19.68 L 18.639999999999997 12.32 L 18.639999999999997 19.560000000000002 C 18.639999999999997 20.160000000000004 16.419999999999998 20.160000000000004 16.419999999999998 19.560000000000002 L 16.419999999999998 7.060000000000002 C 16.419999999999998 5.500000000000002 18.319999999999997 5.980000000000002 18.619999999999997 6.580000000000002 z M 33.72 13.68 L 33.72 15.7 C 33.72 16.279999999999998 33.82 17.56 33.28 18.52 C 32.660000000000004 19.62 31.48 19.939999999999998 30.380000000000003 20 C 29.300000000000004 20.06 28.28 19.66 27.520000000000003 18.9 C 26.720000000000002 18.139999999999997 26.6 17.18 26.560000000000002 16.459999999999997 L 26.560000000000002 16.419999999999998 L 26.560000000000002 9.579999999999998 L 26.560000000000002 9.54 C 26.6 8.819999999999999 26.720000000000002 7.859999999999999 27.520000000000003 7.1 C 28.280000000000005 6.34 29.300000000000004 5.9399999999999995 30.380000000000003 6 C 32.7 6.12 33.620000000000005 7.54 33.620000000000005 9.86 C 33.620000000000005 10.379999999999999 31.440000000000005 10.459999999999999 31.440000000000005 9.78 C 31.440000000000005 8.219999999999999 30.520000000000003 8.139999999999999 29.580000000000005 8.399999999999999 C 28.960000000000004 8.679999999999998 28.840000000000007 9.399999999999999 28.840000000000007 9.919999999999998 L 28.840000000000007 16.099999999999998 C 28.860000000000007 16.599999999999998 28.920000000000005 17.319999999999997 29.540000000000006 17.599999999999998 C 30.020000000000007 17.759999999999998 31.480000000000008 17.999999999999996 31.600000000000005 16.799999999999997 C 31.640000000000004 16.619999999999997 31.620000000000005 16.319999999999997 31.620000000000005 16.099999999999998 L 31.600000000000005 14.859999999999998 L 30.720000000000006 14.859999999999998 C 30.120000000000005 14.859999999999998 30.120000000000005 12.559999999999999 30.720000000000006 12.559999999999999 L 32.74000000000001 12.559999999999999 C 33.720000000000006 12.559999999999999 33.720000000000006 12.559999999999999 33.720000000000006 13.68 z M 38.800000000000004 17.72 L 41.660000000000004 17.72 C 42.260000000000005 17.72 42.260000000000005 20 41.660000000000004 20 L 37.800000000000004 20 C 36.52 20 36.52 20 36.52 18.92 L 36.52 7.080000000000002 C 36.52 6.000000000000002 36.52 6.000000000000002 37.74 5.980000000000002 L 41.64 6.000000000000002 C 42.24 6.000000000000002 42.24 8.280000000000001 41.64 8.280000000000001 L 38.8 8.280000000000001 L 38.8 11.920000000000002 L 40.8 11.920000000000002 C 41.4 11.920000000000002 41.4 14.220000000000002 40.8 14.220000000000002 L 38.8 14.220000000000002 L 38.8 17.720000000000002 z M 46.120000000000005 6 L 49.620000000000005 6 C 51.02 6 52.02 8.52 51.940000000000005 10.54 C 51.900000000000006 11.579999999999998 51.400000000000006 11.94 50.760000000000005 12.7 C 51.540000000000006 13.66 52.02 14.239999999999998 52.06 15.44 C 52.120000000000005 17.4 51.04 20 49.82 20 L 46.18 20 C 44.92 20 44.92 20 44.92 18.9 L 44.92 7.099999999999998 C 44.92 6.019999999999998 44.92 6.019999999999998 46.120000000000005 5.999999999999998 z M 47.2 8.26 L 47.2 11.86 L 48.400000000000006 11.86 C 49.400000000000006 11.86 50.400000000000006 9.959999999999999 49.2 8.26 L 47.2 8.26 z M 47.2 14.1 L 47.2 17.72 L 49.2 17.72 C 50.400000000000006 15.999999999999998 49.400000000000006 14.099999999999998 48.400000000000006 14.099999999999998 L 47.2 14.099999999999998 z M 62.66 6.4399999999999995 L 62.66 15.04 C 62.66 21.64 54.86 21.68 54.86 15.02 L 54.86 6.42 C 54.86 5.82 57.14 5.82 57.14 6.42 L 57.14 15.02 C 57.14 18.68 60.38 18.7 60.38 15.04 L 60.38 6.4399999999999995 C 60.38 5.84 62.660000000000004 5.84 62.660000000000004 6.4399999999999995 z M 66.66 6 L 69.36 6 C 72.7 6 72.8 20 69.56 20 L 66.72 20 C 65.46 20 65.46 20 65.46 18.9 L 65.46 7.099999999999998 C 65.46 6.019999999999998 65.46 6.019999999999998 66.66 5.999999999999998 z M 68.54 8.26 L 68.52000000000001 8.26 C 67.72000000000001 8.26 67.72000000000001 8.26 67.72000000000001 9.02 L 67.72000000000001 16.98 C 67.72000000000001 17.72 67.72000000000001 17.72 68.56000000000002 17.72 L 68.68000000000002 17.72 C 69.98000000000002 17.72 69.92000000000002 8.259999999999998 68.54000000000002 8.259999999999998 z M 75.92 6 L 78.62 6 C 81.96000000000001 6 82.06 20 78.82000000000001 20 L 75.98 20 C 74.72 20 74.72 20 74.72 18.9 L 74.72 7.099999999999998 C 74.72 6.019999999999998 74.72 6.019999999999998 75.92 5.999999999999998 z M 77.80000000000001 8.26 L 77.78000000000002 8.26 C 76.98000000000002 8.26 76.98000000000002 8.26 76.98000000000002 9.02 L 76.98000000000002 16.98 C 76.98000000000002 17.72 76.98000000000002 17.72 77.82000000000002 17.72 L 77.94000000000003 17.72 C 79.24000000000002 17.72 79.18000000000002 8.259999999999998 77.80000000000003 8.259999999999998 z M 88.84000000000002 6.359999999999999 C 89.06000000000002 5.76 91.36000000000001 5.9399999999999995 90.94000000000001 6.9399999999999995 C 90.02000000000001 9.14 88.38000000000001 13.16 88.44000000000001 13.059999999999999 L 88.44000000000001 19.56 C 88.44000000000001 20.16 86.16000000000001 20.16 86.16000000000001 19.56 L 86.16000000000001 13.059999999999999 L 83.64000000000001 7.019999999999999 C 83.18000000000002 5.919999999999998 85.46000000000001 5.699999999999998 85.76000000000002 6.439999999999999 L 87.30000000000003 10.379999999999999 C 87.72000000000003 9.259999999999998 88.40000000000002 7.559999999999999 88.84000000000003 6.359999999999999 z" stroke-linecap="round" />
</g>
</svg>